<svg id="visual" viewBox="0 0 900 600" width="900" height="600" xmlns="http://www.w3.org/2000/svg" xmlns:xlink="http://www.w3.org/1999/xlink" version="1.1"><path d="M0 83L10 77.5C20 72 40 61 60 53.7C80 46.3 100 42.7 120 45C140 47.3 160 55.7 180 60.8C200 66 220 68 240 62.5C260 57 280 44 300 38.7C320 33.3 340 35.7 360 40.7C380 45.7 400 53.3 420 61.7C440 70 460 79 480 77.7C500 76.3 520 64.7 540 55C560 45.3 580 37.7 600 41.8C620 46 640 62 660 70C680 78 700 78 720 77.7C740 77.3 760 76.7 780 75.3C800 74 820 72 840 71.5C860 71 880 72 890 72.5L900 73L900 0L890 0C880 0 860 0 840 0C820 0 800 0 780 0C760 0 740 0 720 0C700 0 680 0 660 0C640 0 620 0 600 0C580 0 560 0 540 0C520 0 500 0 480 0C460 0 440 0 420 0C400 0 380 0 360 0C340 0 320 0 300 0C280 0 260 0 240 0C220 0 200 0 180 0C160 0 140 0 120 0C100 0 80 0 60 0C40 0 20 0 10 0L0 0Z" fill="#ffd500"></path></svg>